<mxfile host="app.diagrams.net" modified="2023-08-12T06:32:36.978Z" agent="Mozilla/5.0 (X11; Linux x86_64) AppleWebKit/537.36 (KHTML, like Gecko) Chrome/115.0.0.0 Safari/537.36" version="21.6.8" etag="pcK0ab68ppW8vqSl3V9P" type="github">
  <diagram name="PÃ¡gina-1" id="f5ut8UVHez6E8cHczLRP">
    <mxGraphModel>
      <root>
        <mxCell id="0" />
        <mxCell id="1" parent="0" />
      </root>
    </mxGraphModel>
  </diagram>
</mxfile>
